<?xml version="1.0" encoding="utf-8"?>
<svg xmlns="http://www.w3.org/2000/svg" xmlns:xlink="http://www.w3.org/1999/xlink" style="margin: auto; background: none; display: block; shape-rendering: auto;" width="151px" height="151px" viewBox="0 0 100 100" preserveAspectRatio="xMidYMid">
<g transform="translate(50 50)">
<g>
<animateTransform attributeName="transform" type="rotate" values="0;45" keyTimes="0;1" dur="0.3333333333333333s" repeatCount="indefinite"></animateTransform><path d="M20.266968199511243 -5.5 L27.266968199511243 -5.5 L27.266968199511243 5.5 L20.266968199511243 5.5 A21 21 0 0 1 18.219997944492523 10.441823351440503 L18.219997944492523 10.441823351440503 L23.169745412798356 15.391570819746335 L15.391570819746336 23.169745412798356 L10.441823351440505 18.219997944492523 A21 21 0 0 1 5.5 20.266968199511243 L5.5 20.266968199511243 L5.500000000000001 27.266968199511243 L-5.499999999999996 27.266968199511243 L-5.4999999999999964 20.266968199511243 A21 21 0 0 1 -10.441823351440501 18.219997944492526 L-10.441823351440501 18.219997944492526 L-15.391570819746333 23.16974541279836 L-23.169745412798356 15.391570819746338 L-18.219997944492523 10.441823351440505 A21 21 0 0 1 -20.266968199511243 5.500000000000002 L-20.266968199511243 5.500000000000002 L-27.266968199511243 5.500000000000003 L-27.266968199511243 -5.499999999999995 L-20.266968199511243 -5.499999999999996 A21 21 0 0 1 -18.219997944492526 -10.441823351440501 L-18.219997944492526 -10.441823351440501 L-23.169745412798356 -15.391570819746333 L-15.39157081974633 -23.169745412798356 L-10.441823351440497 -18.219997944492526 A21 21 0 0 1 -5.500000000000011 -20.26696819951124 L-5.500000000000011 -20.26696819951124 L-5.5000000000000115 -27.26696819951124 L5.500000000000003 -27.26696819951124 L5.5000000000000036 -20.26696819951124 A21 21 0 0 1 10.441823351440492 -18.21999794449253 L10.441823351440492 -18.21999794449253 L15.391570819746324 -23.169745412798363 L23.169745412798356 -15.391570819746333 L18.219997944492526 -10.4418233514405 A21 21 0 0 1 20.26696819951124 -5.500000000000013 M0 -18A18 18 0 1 0 0 18 A18 18 0 1 0 0 -18" fill="#93dbe9"></path></g></g></svg>